<svg preserveAspectRatio="none" width="100%" height="100%" overflow="visible" style="display: block;" viewBox="0 0 37.7122 44.5395" fill="none" xmlns="http://www.w3.org/2000/svg">
<g id="Group">
<path id="Vector" d="M1.95454 38.8266C2.28831 39.2868 2.69664 39.7003 3.13526 40.0606C6.0064 42.4217 10.2796 42.726 13.6389 41.1393C16.9982 39.5531 19.4132 36.2734 20.3429 32.6695C21.0722 29.8441 20.8753 26.6117 19.0719 24.3212C17.9581 22.9068 16.2782 21.9525 14.4952 21.7219C12.6842 21.4871 10.3623 22.578 10.5732 24.396C10.6536 25.0892 11.0986 25.6843 11.5902 26.1778C14.134 28.731 18.1935 29.3285 21.6582 28.3473C25.1229 27.3668 28.0593 25.0273 30.5075 22.3812C32.929 19.7649 35.044 16.5996 35.2782 13.0378C35.5712 8.58244 32.5212 4.15339 28.2964 2.74186C26.7551 2.22677 24.7891 2.27232 23.5892 3.19971" stroke="var(--stroke-0, #F57C00)" stroke-width="4.829" stroke-miterlimit="10"/>
</g>
</svg>
