<svg preserveAspectRatio="none" width="100%" height="100%" overflow="visible" style="display: block;" viewBox="0 0 46.5873 66.9787" fill="none" xmlns="http://www.w3.org/2000/svg">
<g id="Group">
<path id="Vector" d="M34.8016 64.9424C34.1958 64.5564 33.6074 64.1447 33.0401 63.709C27.5937 59.5252 23.7026 52.8945 24.0911 46.0267C24.4797 39.1594 29.9027 32.5357 36.7448 32.0177C38.5115 31.8839 40.3627 32.1596 41.8428 33.1355C43.323 34.1113 44.3546 35.8744 44.1449 37.6381C43.9212 39.518 42.4148 40.9885 40.8159 41.9953C33.975 46.3046 24.8134 44.6636 17.7833 40.6714C11.826 37.2889 6.661 32.1946 4.13062 25.8168C2.04468 20.5596 1.85246 14.5707 3.59705 9.19086C4.20867 7.30396 5.10689 5.41881 6.67498 4.20818C7.99609 3.18793 9.67194 2.74292 11.3262 2.52918C11.7882 2.46961 12.2588 2.4299 12.733 2.41296" stroke="var(--stroke-0, #F57C00)" stroke-width="4.829" stroke-miterlimit="10"/>
</g>
</svg>
